<svg width="21" height="21" viewBox="0 0 21 21" fill="none" xmlns="http://www.w3.org/2000/svg">
<g clip-path="url(#clip0_40_216)">
<path d="M16.5601 2.08008H3.56006V19.0801H16.5601V2.08008Z" stroke="#4FAAE7"/>
<path d="M14.7101 12.2501C14.2301 12.5501 13.3401 12.0601 12.9201 11.8801C13.4167 11.8198 13.9199 11.84 14.4101 11.9401C14.7601 12.0401 14.7701 12.2201 14.7101 12.2501ZM8.41007 12.3101L8.84007 11.5201C9.12339 10.9893 9.37386 10.4416 9.59007 9.88007C9.90858 10.4687 10.3322 10.9941 10.8401 11.4301L11.0401 11.5801C10.1446 11.7497 9.26487 11.9939 8.41007 12.3101ZM9.56007 5.90007C9.76007 5.90007 9.88007 6.40007 9.88007 6.87007C9.89932 7.2312 9.81981 7.59074 9.65007 7.91007C9.53715 7.48597 9.48 7.04895 9.48007 6.61007C9.48007 6.61007 9.48007 5.90007 9.56007 5.90007ZM5.66007 14.9001C5.95113 14.3303 6.36428 13.8318 6.87007 13.4401L7.11007 13.2201C6.77733 13.8972 6.27419 14.4762 5.65007 14.9001H5.66007ZM14.8901 11.6001C14.4967 11.3535 14.0313 11.2477 13.5701 11.3001C13.0414 11.299 12.5134 11.3357 11.9901 11.4101C11.7259 11.2709 11.4777 11.1033 11.2501 10.9101C10.658 10.3337 10.2063 9.62884 9.93007 8.85007C10.1344 7.9922 10.2285 7.11176 10.2101 6.23007C10.1927 6.14519 10.1693 6.06164 10.1401 5.98007C10.1051 5.86796 10.0365 5.76936 9.94338 5.69776C9.85031 5.62617 9.73739 5.58506 9.62007 5.58007H9.46007C9.33236 5.56967 9.20473 5.60113 9.09649 5.66968C8.98824 5.73824 8.90525 5.84017 8.86007 5.96007C8.74052 7.02127 8.86713 8.09573 9.23007 9.10007C8.97007 9.73007 8.23007 11.2201 8.23007 11.2201C7.93007 11.8001 7.66007 12.3001 7.41007 12.7201L6.61007 13.1601C5.91713 13.4788 5.3655 14.0412 5.06007 14.7401C5.03913 14.817 5.04229 14.8985 5.06911 14.9736C5.09593 15.0487 5.14512 15.1138 5.21007 15.1601L5.45007 15.2901C6.60007 15.8501 7.73007 13.5501 8.11007 12.8701C9.28216 12.4915 10.4827 12.2072 11.7001 12.0201C12.5511 12.6093 13.5774 12.8914 14.6101 12.8201C14.733 12.7905 14.8402 12.7155 14.9101 12.6101C15.0378 12.3823 15.0804 12.1164 15.0301 11.8601C14.9981 11.7693 14.9507 11.6848 14.8901 11.6101V11.6001Z" fill="#4FAAE7"/>
</g>
<defs>
<clipPath id="clip0_40_216">
<rect width="20" height="20" fill="white" transform="translate(0.0600586 0.580078)"/>
</clipPath>
</defs>
</svg>
