<svg width="360" height="432" viewBox="0 0 360 432" fill="none" xmlns="http://www.w3.org/2000/svg">
<path d="M4.09139e-05 81C15.3647 81 30.5789 84.0263 44.774 89.9061C58.9691 95.7859 71.8671 104.404 82.7315 115.269C93.596 126.133 102.214 139.031 108.094 153.226C113.974 167.421 117 182.635 117 198C117 213.365 113.974 228.579 108.094 242.774C102.214 256.969 93.596 269.867 82.7315 280.732C71.8671 291.596 58.9691 300.214 44.774 306.094C30.5789 311.974 15.3647 315 0 315L2.37112e-05 244.8C6.14589 244.8 12.2316 243.589 17.9096 241.238C23.5876 238.886 28.7468 235.438 33.0926 231.093C37.4384 226.747 40.8857 221.588 43.2376 215.91C45.5895 210.232 46.8 204.146 46.8 198C46.8 191.854 45.5895 185.768 43.2376 180.09C40.8857 174.412 37.4384 169.253 33.0926 164.907C28.7469 160.562 23.5877 157.114 17.9096 154.762C12.2316 152.411 6.1459 151.2 4.00767e-05 151.2L4.09139e-05 81Z" fill="#F6A2B1"/>
<path d="M234 81C218.635 81 203.421 84.0263 189.226 89.9061C175.031 95.7859 162.133 104.404 151.268 115.269C140.404 126.133 131.786 139.031 125.906 153.226C120.026 167.421 117 182.635 117 198C117 213.365 120.026 228.579 125.906 242.774C131.786 256.969 140.404 269.867 151.269 280.732C162.133 291.596 175.031 300.214 189.226 306.094C203.421 311.974 218.635 315 234 315L234 81Z" fill="#50AAE7"/>
<path d="M234 315C234 330.365 230.974 345.579 225.094 359.774C219.214 373.969 210.596 386.867 199.731 397.732C188.867 408.596 175.969 417.214 161.774 423.094C147.579 428.974 132.365 432 117 432C101.635 432 86.4211 428.974 72.226 423.094C58.0309 417.214 45.1329 408.596 34.2685 397.731C23.404 386.867 14.7859 373.969 8.90608 359.774C3.02628 345.579 -6.93416e-06 330.365 -1.07288e-06 315L234 315Z" fill="#2853B8"/>
<path d="M349 81C349 96.102 346.025 111.056 340.246 125.009C334.467 138.961 325.996 151.639 315.317 162.317C304.639 172.996 291.961 181.467 278.009 187.246C264.056 193.025 249.102 196 234 196L234 81H349Z" fill="#FEDF73"/>
<circle cx="297" cy="248" r="63" fill="#F6A2B1"/>
<circle cx="187" cy="44" r="44" fill="#2853B8"/>
</svg>
