<svg width="388" height="454" viewBox="0 0 388 454" fill="none" xmlns="http://www.w3.org/2000/svg">
<path d="M154 260C154 302.526 119.526 337 77 337C34.4741 337 0 302.526 0 260C0 217.474 34.4741 183 77 183C119.526 183 154 217.474 154 260Z" fill="#2853B8"/>
<path d="M388 274C388 308.794 359.794 337 325 337C290.206 337 262 308.794 262 274C262 239.206 290.206 211 325 211C359.794 211 388 239.206 388 274Z" fill="#FEDF73"/>
<path d="M270 58C270 90.0325 244.033 116 212 116C179.967 116 154 90.0325 154 58C154 25.9675 179.967 0 212 0C244.033 0 270 25.9675 270 58Z" fill="#50AAE7"/>
<path d="M154 106C169.168 106 184.187 108.987 198.2 114.792C212.213 120.596 224.946 129.104 235.671 139.829C246.396 150.554 254.904 163.287 260.708 177.3C266.513 191.313 269.5 206.332 269.5 221.5C269.5 236.668 266.513 251.687 260.708 265.7C254.904 279.713 246.396 292.446 235.671 303.171C224.946 313.896 212.213 322.404 198.2 328.208C184.187 334.013 169.168 337 154 337L154 106Z" fill="#F6A2B1"/>
<path d="M388 337C388 352.365 384.974 367.579 379.094 381.774C373.214 395.969 364.596 408.867 353.731 419.732C342.867 430.596 329.969 439.214 315.774 445.094C301.579 450.974 286.365 454 271 454C255.635 454 240.421 450.974 226.226 445.094C212.031 439.214 199.133 430.596 188.268 419.731C177.404 408.867 168.786 395.969 162.906 381.774C157.026 367.579 154 352.365 154 337L388 337Z" fill="#50AAE7"/>
<path d="M154 106C154 116.112 152.008 126.125 148.139 135.467C144.269 144.809 138.597 153.297 131.447 160.447C124.297 167.597 115.809 173.269 106.467 177.139C97.1246 181.008 87.1118 183 77 183C66.8882 183 56.8754 181.008 47.5334 177.139C38.1913 173.269 29.7029 167.597 22.5528 160.447C15.4027 153.297 9.73089 144.809 5.86127 135.467C1.99166 126.125 -8.84e-07 116.112 0 106L46.2 106C46.2 110.045 46.9967 114.05 48.5445 117.787C50.0924 121.523 52.3611 124.919 55.2211 127.779C58.0812 130.639 61.4765 132.908 65.2133 134.455C68.9502 136.003 72.9553 136.8 77 136.8C81.0447 136.8 85.0498 136.003 88.7867 134.455C92.5235 132.908 95.9188 130.639 98.7789 127.779C101.639 124.919 103.908 121.523 105.455 117.787C107.003 114.05 107.8 110.045 107.8 106H154Z" fill="#FEDF73"/>
</svg>
