<svg width="485" height="373" viewBox="0 0 485 373" fill="none" xmlns="http://www.w3.org/2000/svg">
<ellipse cx="68.5" cy="59.5" rx="61.5" ry="59.5" fill="#F6A2B1"/>
<path d="M127.5 238C112.07 238 96.7905 234.922 82.5347 228.942C68.2789 222.961 55.3258 214.196 44.415 203.146C33.5041 192.096 24.8491 178.977 18.9442 164.539C13.0392 150.102 10 134.627 10 119L127.5 119V238Z" fill="#50AAE7"/>
<path d="M128 119C143.43 119 158.71 122.078 172.965 128.058C187.221 134.039 200.174 142.804 211.085 153.854C221.996 164.904 230.651 178.023 236.556 192.461C242.461 206.898 245.5 222.373 245.5 238L128 238L128 119Z" fill="#FEDF73"/>
<path d="M484.25 129.75C484.25 145.18 481.172 160.46 475.192 174.715C469.211 188.971 460.446 201.924 449.396 212.835C438.346 223.746 425.227 232.401 410.789 238.306C396.352 244.211 380.877 247.25 365.25 247.25L365.25 129.75L484.25 129.75Z" fill="#50AAE7"/>
<path d="M275 372.5C275 354.837 271.443 337.347 264.533 321.029C257.623 304.711 247.495 289.884 234.727 277.394C221.959 264.905 206.801 254.997 190.119 248.238C173.437 241.479 155.557 238 137.5 238C119.443 238 101.563 241.479 84.881 248.238C68.1988 254.997 53.0409 264.905 40.2728 277.394C27.5048 289.884 17.3766 304.711 10.4666 321.029C3.55654 337.347 -1.57857e-06 354.837 0 372.5L85.7043 372.5C85.7043 365.846 87.044 359.258 89.647 353.111C92.2499 346.964 96.0652 341.379 100.875 336.674C105.685 331.969 111.394 328.237 117.679 325.691C123.963 323.145 130.698 321.834 137.5 321.834C144.302 321.834 151.037 323.145 157.321 325.691C163.606 328.237 169.315 331.969 174.125 336.674C178.935 341.379 182.75 346.964 185.353 353.111C187.956 359.258 189.296 365.846 189.296 372.5H275Z" fill="#2853B8"/>
<path d="M367.5 130C351.15 130 334.961 133.143 319.856 139.249C304.751 145.355 291.026 154.304 279.465 165.587C267.904 176.869 258.734 190.263 252.477 205.004C246.22 219.745 243 235.544 243 251.5C243 267.456 246.22 283.255 252.477 297.996C258.734 312.737 267.904 326.131 279.465 337.413C291.026 348.696 304.751 357.645 319.856 363.751C334.961 369.857 351.15 373 367.5 373L367.5 130Z" fill="#F6A2B1"/>
</svg>
