<svg width="467" height="425" viewBox="0 0 467 425" fill="none" xmlns="http://www.w3.org/2000/svg">
<path d="M466.5 425C451.332 425 436.313 421.974 422.3 416.094C408.287 410.214 395.554 401.596 384.829 390.731C374.104 379.867 365.596 366.969 359.792 352.774C353.987 338.579 351 323.365 351 308L466.5 308V425Z" fill="#FEDF73"/>
<path d="M351 308C351 323.365 347.961 338.579 342.056 352.774C336.151 366.969 327.496 379.867 316.585 390.732C305.674 401.596 292.721 410.214 278.465 416.094C264.21 421.974 248.93 425 233.5 425C218.07 425 202.79 421.974 188.535 416.094C174.279 410.214 161.326 401.596 150.415 390.731C139.504 379.867 130.849 366.969 124.944 352.774C119.039 338.579 116 323.365 116 308L351 308Z" fill="#2853B8"/>
<path d="M116 242C116 271.823 92.2711 296 63 296C33.7289 296 10 271.823 10 242C10 212.177 33.7289 188 63 188C92.2711 188 116 212.177 116 242Z" fill="#F6A2B1"/>
<path d="M122.088 0.342083C122.111 25.8471 132.342 50.2982 150.531 68.3165C168.72 86.3348 193.376 96.4444 219.076 96.4211C244.776 96.3979 269.414 86.2437 287.57 68.1925C305.726 50.1413 315.913 25.6717 315.89 0.166748L255.567 0.221318C255.576 9.84893 251.73 19.0857 244.877 25.8997C238.023 32.7136 228.723 36.5466 219.022 36.5554C209.321 36.5641 200.013 32.748 193.148 25.9465C186.282 19.1449 182.419 9.91512 182.411 0.287504L122.088 0.342083Z" fill="#F6A2B1"/>
<path d="M0 72.5C0 87.6677 3.02629 102.687 8.9061 116.7C14.7859 130.713 23.4041 143.446 34.2685 154.171C45.133 164.896 58.0309 173.404 72.226 179.208C86.4211 185.013 101.635 188 117 188L117 72.5H0Z" fill="#E6E3A0"/>
<path d="M115.205 308.996C130.728 309.056 146.11 306.056 160.475 300.168C174.839 294.279 187.903 285.618 198.922 274.678C209.94 263.738 218.697 250.733 224.693 236.407C230.689 222.081 233.805 206.713 233.865 191.181C233.925 175.65 230.927 160.259 225.042 145.887C219.157 131.515 210.5 118.443 199.566 107.418C188.632 96.3936 175.635 87.6316 161.317 81.6327C146.999 75.6338 131.64 72.5154 116.117 72.4556L115.205 308.996Z" fill="#50AAE7"/>
</svg>
