<?xml version="1.0" encoding="UTF-8" standalone="no"?><svg viewBox="0 0 800 800" xmlns="http://www.w3.org/2000/svg" xmlns:xlink="http://www.w3.org/1999/xlink"><style>:root>svg{display:none}:root>svg:target{display:block}</style><svg viewBox="-5 0 20 20" id="f-ico" xmlns="http://www.w3.org/2000/svg"><path d="M6.821 20v-9h2.733L10 7H6.821V5.052C6.821 4.022 6.848 3 8.287 3h1.458V.14c0-.043-1.253-.14-2.52-.14C4.58 0 2.924 1.657 2.924 4.7V7H0v4h2.923v9h3.898Z" fill="" fill-rule="evenodd" stroke=""/></svg><svg viewBox="0 0 170 170" id="home-shape-01" xmlns="http://www.w3.org/2000/svg"><path d="M0 0a170 170 0 0 0 170 170s-.3-170 0-170Z" fill="" stroke=""/></svg><svg viewBox="0 0 20 20" id="inst-ico" xmlns="http://www.w3.org/2000/svg"><path d="M5.87.123C4.242.196 2.83.594 1.69 1.729.548 2.869.155 4.286.081 5.897.037 6.902-.231 14.498.545 16.49a5.04 5.04 0 0 0 2.91 2.903c.634.246 1.356.412 2.416.461 8.86.401 12.145.183 13.53-3.364.246-.631.415-1.353.462-2.41.405-8.883-.066-10.809-1.61-12.351C17.027.507 15.586-.325 5.87.123m.081 17.944c-.97-.043-1.496-.205-1.848-.341a3.255 3.255 0 0 1-1.888-1.883c-.591-1.514-.395-8.703-.342-9.866.051-1.14.282-2.18 1.086-2.985C3.954 2 5.24 1.513 13.993 1.908c1.142.052 2.186.282 2.992 1.084.995.993 1.489 2.288 1.087 11.008-.044.968-.206 1.493-.342 1.843-.901 2.308-2.973 2.628-11.779 2.224M14.09 4.69c0 .657.534 1.19 1.194 1.19.66 0 1.195-.533 1.195-1.19a1.194 1.194 0 0 0-2.39 0M4.864 9.988a5.103 5.103 0 0 0 5.11 5.097 5.103 5.103 0 0 0 5.109-5.097 5.102 5.102 0 0 0-5.11-5.096 5.102 5.102 0 0 0-5.11 5.096m1.794 0A3.313 3.313 0 0 1 9.972 6.68a3.313 3.313 0 0 1 3.317 3.308 3.313 3.313 0 0 1-3.317 3.31 3.313 3.313 0 0 1-3.316-3.31" fill="" fill-rule="evenodd" stroke=""/></svg><svg viewBox="-143 145 512 512" xml:space="preserve" id="linkedin-ico" xmlns="http://www.w3.org/2000/svg"><path d="M113 145c-141.4 0-256 114.6-256 256s114.6 256 256 256 256-114.6 256-256-114.6-256-256-256zM41.4 508.1H-8.5V348.4h49.9v159.7zM15.1 328.4h-.4c-18.1 0-29.8-12.2-29.8-27.7 0-15.8 12.1-27.7 30.5-27.7s29.7 11.9 30.1 27.7c.1 15.4-11.6 27.7-30.4 27.7zM241 508.1h-56.6v-82.6c0-21.6-8.8-36.4-28.3-36.4-14.9 0-23.2 10-27 19.6-1.4 3.4-1.2 8.2-1.2 13.1v86.3H71.8s.7-146.4 0-159.7h56.1v25.1c3.3-11 21.2-26.6 49.8-26.6 35.5 0 63.3 23 63.3 72.4v88.8z" fill="" stroke=""/></svg><svg viewBox="0 0 24 24" fill="none" id="phone-dark" xmlns="http://www.w3.org/2000/svg"><path d="M18.4 20.75h-.23a16.73 16.73 0 0 1-7.27-2.58 16.579 16.579 0 0 1-5.06-5.05 16.72 16.72 0 0 1-2.58-7.29A2.3 2.3 0 0 1 3.8 4.1a2.32 2.32 0 0 1 1.6-.84H8a2.36 2.36 0 0 1 2.33 2c.095.715.273 1.416.53 2.09a2.37 2.37 0 0 1-.54 2.49l-.61.61a12 12 0 0 0 3.77 3.75l.61-.6a2.37 2.37 0 0 1 2.49-.54 9.574 9.574 0 0 0 2.09.53 2.35 2.35 0 0 1 2 2.38v2.4a2.36 2.36 0 0 1-2.35 2.36l.08.02ZM8 4.75H5.61a.87.87 0 0 0-.61.31.83.83 0 0 0-.2.62 15.17 15.17 0 0 0 2.31 6.62 15 15 0 0 0 4.59 4.59 15.34 15.34 0 0 0 6.63 2.36A.89.89 0 0 0 19 19a.88.88 0 0 0 .25-.61V16a.86.86 0 0 0-.74-.87 11.424 11.424 0 0 1-2.42-.6.87.87 0 0 0-.91.19l-1 1a.76.76 0 0 1-.9.12 13.53 13.53 0 0 1-5.11-5.1.74.74 0 0 1 .12-.9l1-1a.85.85 0 0 0 .19-.9 11.28 11.28 0 0 1-.6-2.42.87.87 0 0 0-.88-.77Z" fill="" stroke=""/></svg><svg viewBox="0 0 24 24" fill="none" id="search-dark" xmlns="http://www.w3.org/2000/svg"><path d="m15 15 6 6m-11-4a7 7 0 1 1 0-14 7 7 0 0 1 0 14Z" stroke="" stroke-width="2" stroke-linecap="round" stroke-linejoin="round" fill=""/></svg></svg>