<?xml version="1.0" encoding="utf-8"?><svg viewBox="0 0 800 800" xmlns="http://www.w3.org/2000/svg" xmlns:xlink="http://www.w3.org/1999/xlink"><style>:root>svg{display:none}:root>svg:target{display:block}</style><svg viewBox="0 0 20 20" id="arrow" xmlns="http://www.w3.org/2000/svg"><path fill="" stroke="" d="m10 5 5 4.5-5 4.5M4 9.5h11"/></svg><svg viewBox="0 -4.5 20 20" id="arrow-popup" xmlns="http://www.w3.org/2000/svg"><path d="M19.708 10.634c.39-.405.39-1.06 0-1.464L11.444.607a1.95 1.95 0 0 0-2.827 0L.292 9.232c-.385.4-.39 1.048-.01 1.454a.976.976 0 0 0 1.425.01l7.617-7.893a.975.975 0 0 1 1.414 0l7.557 7.83a.974.974 0 0 0 1.413 0" fill="" fill-rule="evenodd" stroke=""/></svg><svg viewBox="0 0 24 24" fill="none" id="arrow-r" xmlns="http://www.w3.org/2000/svg"><path stroke="" stroke-linecap="round" stroke-linejoin="round" stroke-width="2" d="M4 12h16m0 0-6 6m6-6-6-6" fill=""/></svg><svg viewBox="0 0 20 20" id="burger-ico" xmlns="http://www.w3.org/2000/svg"><style/><path class="dline-1" d="M0 3h20v2H0z" fill="" stroke=""/><path class="dline-2" d="M0 9h20v2H0z" fill="" stroke=""/><path class="dline-3" d="M0 9h20v2H0z" fill="" stroke=""/><path class="dline-4" d="M0 15h20v2H0z" fill="" stroke=""/></svg><svg class="eel-image euk-text-emphasis euk-svg" viewBox="0 0 36 36" id="check-icon" xmlns="http://www.w3.org/2000/svg"><path fill="" stroke="" stroke-miterlimit="10" stroke-width="2" d="m10 15 7.7 10L35 3"/></svg><svg viewBox="0 0 24 24" fill="none" id="clock" xmlns="http://www.w3.org/2000/svg"><path opacity=".1" d="M21 12a9 9 0 1 1-18 0 9 9 0 0 1 18 0Z" fill="" stroke=""/><path d="M21 12a9 9 0 1 1-18 0 9 9 0 0 1 18 0Z" stroke="" stroke-width="2" fill=""/><path d="M12 7v4.52c0 .3.15.58.4.747v0L15 14" stroke="" stroke-width="2" stroke-linecap="round" stroke-linejoin="round" fill=""/></svg><svg viewBox="0 -0.5 21 21" id="close-ico" xmlns="http://www.w3.org/2000/svg"><path d="M12.018 10 21 18.554 19.48 20l-8.98-8.554L1.518 20 0 18.554 8.98 10 0 1.446 1.518 0 10.5 8.554 19.48 0 21 1.446z" fill="" fill-rule="evenodd" stroke=""/></svg><svg viewBox="-5 0 20 20" id="f-ico" xmlns="http://www.w3.org/2000/svg"><path d="M6.821 20v-9h2.733L10 7H6.821V5.052C6.821 4.022 6.848 3 8.287 3h1.458V.14c0-.043-1.253-.14-2.52-.14C4.58 0 2.924 1.657 2.924 4.7V7H0v4h2.923v9h3.898Z" fill="" fill-rule="evenodd" stroke=""/></svg><svg viewBox="0 0 170 170" id="home-shape-01" xmlns="http://www.w3.org/2000/svg"><path d="M0 0a170 170 0 0 0 170 170s-.3-170 0-170Z" fill="" stroke=""/></svg><svg viewBox="0 0 165 330" id="home-shape-02" xmlns="http://www.w3.org/2000/svg"><path d="M0 330a165 165 0 0 0 165-165A165 165 0 0 0 0 0Z" fill="" stroke=""/></svg><svg viewBox="0 0 20 20" id="inst-ico" xmlns="http://www.w3.org/2000/svg"><path d="M5.87.123C4.242.196 2.83.594 1.69 1.729.548 2.869.155 4.286.081 5.897.037 6.902-.231 14.498.545 16.49a5.04 5.04 0 0 0 2.91 2.903c.634.246 1.356.412 2.416.461 8.86.401 12.145.183 13.53-3.364.246-.631.415-1.353.462-2.41.405-8.883-.066-10.809-1.61-12.351C17.027.507 15.586-.325 5.87.123m.081 17.944c-.97-.043-1.496-.205-1.848-.341a3.255 3.255 0 0 1-1.888-1.883c-.591-1.514-.395-8.703-.342-9.866.051-1.14.282-2.18 1.086-2.985C3.954 2 5.24 1.513 13.993 1.908c1.142.052 2.186.282 2.992 1.084.995.993 1.489 2.288 1.087 11.008-.044.968-.206 1.493-.342 1.843-.901 2.308-2.973 2.628-11.779 2.224M14.09 4.69c0 .657.534 1.19 1.194 1.19.66 0 1.195-.533 1.195-1.19a1.194 1.194 0 0 0-2.39 0M4.864 9.988a5.103 5.103 0 0 0 5.11 5.097 5.103 5.103 0 0 0 5.109-5.097 5.102 5.102 0 0 0-5.11-5.096 5.102 5.102 0 0 0-5.11 5.096m1.794 0A3.313 3.313 0 0 1 9.972 6.68a3.313 3.313 0 0 1 3.317 3.308 3.313 3.313 0 0 1-3.317 3.31 3.313 3.313 0 0 1-3.316-3.31" fill="" fill-rule="evenodd" stroke=""/></svg><svg viewBox="-143 145 512 512" xml:space="preserve" id="linkedin-ico" xmlns="http://www.w3.org/2000/svg"><path d="M113 145c-141.4 0-256 114.6-256 256s114.6 256 256 256 256-114.6 256-256-114.6-256-256-256zM41.4 508.1H-8.5V348.4h49.9v159.7zM15.1 328.4h-.4c-18.1 0-29.8-12.2-29.8-27.7 0-15.8 12.1-27.7 30.5-27.7s29.7 11.9 30.1 27.7c.1 15.4-11.6 27.7-30.4 27.7zM241 508.1h-56.6v-82.6c0-21.6-8.8-36.4-28.3-36.4-14.9 0-23.2 10-27 19.6-1.4 3.4-1.2 8.2-1.2 13.1v86.3H71.8s.7-146.4 0-159.7h56.1v25.1c3.3-11 21.2-26.6 49.8-26.6 35.5 0 63.3 23 63.3 72.4v88.8z" fill="" stroke=""/></svg><svg viewBox="0 0 1024 1024" id="location" xmlns="http://www.w3.org/2000/svg"><path d="M800 416a288 288 0 1 0-576 0c0 118.144 94.528 272.128 288 456.576C705.472 688.128 800 534.144 800 416zM512 960C277.312 746.688 160 565.312 160 416a352 352 0 0 1 704 0c0 149.312-117.312 330.688-352 544z" fill="" stroke=""/><path d="M512 512a96 96 0 1 0 0-192 96 96 0 0 0 0 192zm0 64a160 160 0 1 1 0-320 160 160 0 0 1 0 320z" fill="" stroke=""/></svg><svg viewBox="0 0 24 24" id="mail" xmlns="http://www.w3.org/2000/svg"><path fill="" stroke="" stroke-linecap="round" stroke-linejoin="round" stroke-width="2" d="m4 8.2 8 5.9 8-5.9"/><rect fill="none" height="14" rx="2" ry="2" stroke="#000" stroke-linecap="round" stroke-linejoin="round" stroke-width="2" width="18" x="3" y="6.5"/></svg><svg viewBox="0 0 32 32" id="mail-2" xmlns="http://www.w3.org/2000/svg"><path d="M5 24.225V7.776h22v16.447H5v.002zm3.011-1.815h15.978l-5.111-5.115L16 20.179l-2.877-2.883-5.112 5.114zm-1.216-1.275 5.077-5.09-5.077-5.065v10.155zm13.332-5.09 5.079 5.09V10.979l-5.079 5.066zm-4.126 1.588 8.022-8.027-16.045-.001 8.023 8.028z" fill="" stroke=""/></svg><svg viewBox="0 0 24 24" fill="none" id="mess" xmlns="http://www.w3.org/2000/svg"><path d="M7 21v-5H4V4h16v12h-8l-5 5Z" stroke="" stroke-width="1.5" stroke-linecap="round" stroke-linejoin="round" fill=""/></svg><svg viewBox="0 0 510 355" id="nan-1" xmlns="http://www.w3.org/2000/svg"><path d="M510.006 353.957a174.227 174.227 0 0 1 0-348.454Z" fill="" stroke=""/></svg><svg viewBox="0 0 510 355" id="nan-2" xmlns="http://www.w3.org/2000/svg"><path d="M352.301 87.86A87.417 87.417 0 1 1 264.884.443 87.418 87.418 0 0 1 352.3 87.86" fill="" stroke=""/></svg><svg viewBox="0 0 510 355" id="nan-3" xmlns="http://www.w3.org/2000/svg"><path d="M3.715 353.956c0-103.975 84.308-188.283 188.283-188.283 104.003 0 188.31 84.308 188.31 188.283H265.726a73.714 73.714 0 0 0-73.701-73.727h-.026a73.732 73.732 0 0 0-73.727 73.727Z" fill="" stroke=""/></svg><svg viewBox="0 0 510 355" id="nan-full" xmlns="http://www.w3.org/2000/svg"><path d="M510.006 353.957a174.227 174.227 0 0 1 0-348.454Z" fill="" stroke=""/><path d="M352.301 87.86A87.417 87.417 0 1 1 264.884.443 87.418 87.418 0 0 1 352.3 87.86" fill="" stroke=""/><path d="M3.715 353.956c0-103.975 84.308-188.283 188.283-188.283 104.003 0 188.31 84.308 188.31 188.283H265.726a73.714 73.714 0 0 0-73.701-73.727h-.026a73.732 73.732 0 0 0-73.727 73.727Z" fill="" stroke=""/></svg><svg class="uel-image uuk-text-muted uuk-svg" viewBox="0 0 540 800" id="patient-bg" xmlns="http://www.w3.org/2000/svg"><path d="M140 0A399.2 399.2 0 0 0 0 25.19v749.62A399.2 399.2 0 0 0 140 800c220.91 0 400-179.09 400-400S360.91 0 140 0Z" fill="" opacity=".1" stroke=""/></svg><svg viewBox="0 0 24 24" fill="none" id="phone-dark" xmlns="http://www.w3.org/2000/svg"><path d="M18.4 20.75h-.23a16.73 16.73 0 0 1-7.27-2.58 16.579 16.579 0 0 1-5.06-5.05 16.72 16.72 0 0 1-2.58-7.29A2.3 2.3 0 0 1 3.8 4.1a2.32 2.32 0 0 1 1.6-.84H8a2.36 2.36 0 0 1 2.33 2c.095.715.273 1.416.53 2.09a2.37 2.37 0 0 1-.54 2.49l-.61.61a12 12 0 0 0 3.77 3.75l.61-.6a2.37 2.37 0 0 1 2.49-.54 9.574 9.574 0 0 0 2.09.53 2.35 2.35 0 0 1 2 2.38v2.4a2.36 2.36 0 0 1-2.35 2.36l.08.02ZM8 4.75H5.61a.87.87 0 0 0-.61.31.83.83 0 0 0-.2.62 15.17 15.17 0 0 0 2.31 6.62 15 15 0 0 0 4.59 4.59 15.34 15.34 0 0 0 6.63 2.36A.89.89 0 0 0 19 19a.88.88 0 0 0 .25-.61V16a.86.86 0 0 0-.74-.87 11.424 11.424 0 0 1-2.42-.6.87.87 0 0 0-.91.19l-1 1a.76.76 0 0 1-.9.12 13.53 13.53 0 0 1-5.11-5.1.74.74 0 0 1 .12-.9l1-1a.85.85 0 0 0 .19-.9 11.28 11.28 0 0 1-.6-2.42.87.87 0 0 0-.88-.77Z" fill="" stroke=""/></svg><svg fill="none" viewBox="0 0 21 21" id="reader" xmlns="http://www.w3.org/2000/svg"><g clip-path="url(#wa)"><path d="M16.56 2.08h-13v17h13v-17Z" stroke="" fill=""/><path d="M14.71 12.25c-.48.3-1.37-.19-1.79-.37.497-.06 1-.04 1.49.06.35.1.36.28.3.31Zm-6.3.06.43-.79a14.7 14.7 0 0 0 .75-1.64 5.48 5.48 0 0 0 1.25 1.55l.2.15a16.35 16.35 0 0 0-2.63.73ZM9.56 5.9c.2 0 .32.5.32.97.02.361-.06.72-.23 1.04a5.05 5.05 0 0 1-.17-1.3s0-.71.08-.71Zm-3.9 9a4.349 4.349 0 0 1 1.21-1.46l.24-.22a4.35 4.35 0 0 1-1.46 1.68h.01Zm9.23-3.3a2.05 2.05 0 0 0-1.32-.3 11.061 11.061 0 0 0-1.58.11 4.088 4.088 0 0 1-.74-.5 5.39 5.39 0 0 1-1.32-2.06c.204-.858.299-1.738.28-2.62a1.835 1.835 0 0 0-.07-.25.57.57 0 0 0-.52-.4h-.16a.59.59 0 0 0-.6.38 6.95 6.95 0 0 0 .37 3.14c-.26.63-1 2.12-1 2.12-.3.58-.57 1.08-.82 1.5l-.8.44a3.11 3.11 0 0 0-1.55 1.58.39.39 0 0 0 .15.42l.24.13c1.15.56 2.28-1.74 2.66-2.42a23.092 23.092 0 0 1 3.59-.85 4.56 4.56 0 0 0 2.91.8.5.5 0 0 0 .3-.21 1.1 1.1 0 0 0 .12-.75.84.84 0 0 0-.14-.25v-.01Z" fill="" stroke=""/></g><defs><clipPath id="wa"><path fill="" transform="translate(.06 .58)" d="M0 0h20v20H0z" stroke=""/></clipPath></defs></svg><svg viewBox="0 0 24 24" fill="none" id="search-dark" xmlns="http://www.w3.org/2000/svg"><path d="m15 15 6 6m-11-4a7 7 0 1 1 0-14 7 7 0 0 1 0 14Z" stroke="" stroke-width="2" stroke-linecap="round" stroke-linejoin="round" fill=""/></svg></svg>